<?xml version="1.0" encoding="UTF-8"?>
<svg xmlns="http://www.w3.org/2000/svg" width="1918" height="575" viewBox="0 0 1918 575" fill="none">
  <g clip-path="url(#clip0_9880_20384)">
    <rect width="1918" height="575" fill="#F4F8FA"></rect>
    <path d="M352.178 297.687C398.533 228.344 527.334 89.8113 671.698 90.4231C852.152 91.1879 812.419 242.62 1037.57 244.915C1262.73 247.209 1300.22 -51.4373 1527.94 -84.4265C1770.52 -119.567 1973.15 445.431 2067.15 458.352L2070 458.573C2069.06 458.558 2068.11 458.484 2067.15 458.352L329 322.925L352.178 297.687Z" fill="#EAEFF1"></path>
    <g opacity="0.8">
      <path d="M1656.55 133.081L1714.5 134.711L1711.17 351.635L1647.02 344.973L1656.55 133.081Z" fill="#EAEFF1"></path>
      <path d="M1603.48 113.609L1640.81 113.944L1639.65 343.214L1598.3 337.711L1603.48 113.609Z" fill="#EAEFF1"></path>
      <path d="M1546.78 163.06L1609.38 163.578L1608.38 345.926L1539.02 341.271L1546.78 163.06Z" fill="#E1E6E8"></path>
      <path d="M1622.64 151.287L1677.29 151.283L1677.25 345.677L1616.68 341.33L1622.64 151.287Z" fill="#E1E6E8"></path>
      <rect x="1559.32" y="170.957" width="6.77457" height="13.0679" fill="#EBF0F2"></rect>
      <rect x="1559.32" y="191.411" width="6.77457" height="13.0679" fill="#EBF0F2"></rect>
      <rect x="1598.17" y="220.389" width="6.77457" height="13.0679" fill="#EBF0F2"></rect>
      <rect x="1552.55" y="265.273" width="6.77457" height="13.0679" fill="#EBF0F2"></rect>
      <rect x="1585.06" y="282.886" width="6.77457" height="13.0679" fill="#CED1D2"></rect>
      <rect x="1625.71" y="166.413" width="6.77457" height="13.0679" fill="#F4F8FA"></rect>
      <rect x="1661.39" y="266.98" width="6.77457" height="13.0679" fill="#F4F8FA"></rect>
      <rect x="1664.55" y="215.844" width="6.77457" height="13.0679" fill="#F4F8FA"></rect>
      <rect x="1667.72" y="166.413" width="6.77457" height="13.0679" fill="#CED1D2"></rect>
      <rect x="1628.88" y="218.685" width="6.77457" height="13.0679" fill="#CED1D2"></rect>
      <rect x="1608.55" y="121.527" width="6.77457" height="11.9315" fill="#CED1D2"></rect>
      <rect x="1610.35" y="140.276" width="3.16147" height="6.24986" fill="#CED1D2"></rect>
      <rect x="1625.71" y="128.913" width="6.77457" height="13.0679" fill="#CED1D2"></rect>
    </g>
    <g opacity="0.8">
      <path d="M482.019 79.8619L396 82.1422L400.943 385.574L496.168 376.254L482.019 79.8619Z" fill="#EAEFF1"></path>
      <path d="M560.803 52.6239L505.384 53.0922L507.106 373.793L568.488 366.095L560.803 52.6239Z" fill="#EAEFF1"></path>
      <path d="M644.95 121.795L552.023 122.519L553.509 377.586L656.467 371.074L644.95 121.795Z" fill="#E1E6E8"></path>
      <path d="M532.344 105.326L451.224 105.321L451.287 377.237L541.192 371.156L532.344 105.326Z" fill="#E1E6E8"></path>
      <rect width="10.056" height="18.2792" transform="matrix(-1 0 0 1 626.332 132.843)" fill="#EBF0F2"></rect>
      <rect width="10.056" height="18.2792" transform="matrix(-1 0 0 1 626.332 161.454)" fill="#EBF0F2"></rect>
      <rect width="10.056" height="18.2792" transform="matrix(-1 0 0 1 568.679 201.986)" fill="#EBF0F2"></rect>
      <rect width="10.056" height="18.2792" transform="matrix(-1 0 0 1 636.389 264.771)" fill="#EBF0F2"></rect>
      <rect width="10.056" height="18.2792" transform="matrix(-1 0 0 1 588.121 289.409)" fill="#CED1D2"></rect>
      <rect width="10.056" height="18.2792" transform="matrix(-1 0 0 1 527.783 126.484)" fill="#F4F8FA"></rect>
      <rect width="10.056" height="18.2792" transform="matrix(-1 0 0 1 474.821 267.155)" fill="#F4F8FA"></rect>
      <rect width="10.056" height="18.2792" transform="matrix(-1 0 0 1 470.129 195.628)" fill="#F4F8FA"></rect>
      <rect width="10.056" height="18.2792" transform="matrix(-1 0 0 1 465.436 126.484)" fill="#CED1D2"></rect>
      <rect width="10.056" height="18.2792" transform="matrix(-1 0 0 1 523.09 199.602)" fill="#CED1D2"></rect>
      <rect width="10.056" height="16.6897" transform="matrix(-1 0 0 1 553.259 63.7)" fill="#CED1D2"></rect>
      <rect width="4.69278" height="8.74224" transform="matrix(-1 0 0 1 550.577 89.9269)" fill="#CED1D2"></rect>
      <rect width="10.056" height="18.2792" transform="matrix(-1 0 0 1 527.783 74.0317)" fill="#CED1D2"></rect>
    </g>
    <path d="M-633.295 251.854C-767.973 251.329 -888.132 370.396 -931.377 429.995L-953 451.687L620.812 458.261C534.322 456.946 321.415 101.573 165.503 101.573C-49.1594 101.573 -81.9203 386.61 -291.968 384.638C-502.015 382.666 -464.948 252.512 -633.295 251.854Z" fill="#E1E6E8"></path>
    <path d="M-64.3479 303.726C-164.67 301.417 -345.25 325.851 -423 338.356L-309.125 646.772L2172.84 661.573C2178.69 573.073 2165.31 394.342 2064.99 387.416C1939.59 378.758 1866.98 364.329 1618.68 338.356C1370.39 312.384 1099.39 303.726 928.843 303.726C758.295 303.726 580.274 311.677 399.694 317.449C219.114 323.221 61.055 306.612 -64.3479 303.726Z" fill="#E1E6E8"></path>
  </g>
  <defs>
    <clipPath id="clip0_9880_20384">
      <rect width="1918" height="575" fill="white"></rect>
    </clipPath>
  </defs>
</svg>
